<svg width="16" height="18" viewBox="0 0 16 18" fill="none" xmlns="http://www.w3.org/2000/svg">
<path d="M0.78418 3.9209H2.35251H14.8991" stroke="#FB6D3A" stroke-width="1.56833" stroke-linecap="round" stroke-linejoin="round"/>
<path d="M4.70503 3.92083V2.35251C4.70503 1.93656 4.87026 1.53765 5.16438 1.24353C5.4585 0.949414 5.85741 0.78418 6.27336 0.78418H9.41001C9.82596 0.78418 10.2249 0.949414 10.519 1.24353C10.8131 1.53765 10.9783 1.93656 10.9783 2.35251V3.92083M13.3308 3.92083V14.8991C13.3308 15.3151 13.1656 15.714 12.8715 16.0081C12.5774 16.3022 12.1784 16.4675 11.7625 16.4675H3.92087C3.50492 16.4675 3.10601 16.3022 2.81189 16.0081C2.51777 15.714 2.35254 15.3151 2.35254 14.8991V3.92083H13.3308Z" stroke="#FB6D3A" stroke-width="1.56833" stroke-linecap="round" stroke-linejoin="round"/>
<path d="M6.27344 7.8418V12.5468" stroke="#FB6D3A" stroke-width="1.56833" stroke-linecap="round" stroke-linejoin="round"/>
<path d="M9.41016 7.8418V12.5468" stroke="#FB6D3A" stroke-width="1.56833" stroke-linecap="round" stroke-linejoin="round"/>
</svg>
