<svg width="19" height="19" viewBox="0 0 19 19" fill="none" xmlns="http://www.w3.org/2000/svg">
<path d="M8.88425 0.590211C8.94385 0.405395 9.20533 0.405394 9.26494 0.590211L11.0567 6.14589C11.0834 6.22866 11.1605 6.28469 11.2475 6.2845L17.0849 6.27174C17.2791 6.27132 17.3599 6.52001 17.2025 6.6338L12.4724 10.0546C12.402 10.1056 12.3725 10.1963 12.3996 10.2789L14.2156 15.8267C14.276 16.0113 14.0644 16.165 13.9076 16.0505L9.1925 12.609C9.12226 12.5577 9.02693 12.5577 8.95668 12.609L4.24159 16.0505C4.08474 16.165 3.87319 16.0113 3.9336 15.8267L5.74961 10.2789C5.77666 10.1963 5.74721 10.1056 5.67674 10.0546L0.946646 6.6338C0.789294 6.52001 0.870096 6.27132 1.06429 6.27174L6.90173 6.2845C6.9887 6.28469 7.06582 6.22866 7.09251 6.14589L8.88425 0.590211Z" fill="#D9D9D9"/>
</svg>
