<svg width="24" height="24" viewBox="0 0 24 24" fill="none" xmlns="http://www.w3.org/2000/svg">
<path d="M22.2752 5.325C21.6916 4.55124 20.8926 3.96701 19.9783 3.64556C19.6001 2.74917 18.9171 2.01537 18.0501 1.57392C17.1831 1.13247 16.1879 1.01179 15.2405 1.23323C14.348 0.438869 13.1949 0 12.0001 0C10.8053 0 9.65212 0.438869 8.75966 1.23323C7.81218 1.01179 6.81691 1.13244 5.94979 1.57386C5.08267 2.01529 4.39954 2.74906 4.02114 3.64547C3.10695 3.96695 2.30805 4.55123 1.72465 5.325C1.07966 6.18547 0.737242 7.23503 0.750686 8.31032C0.764131 9.3856 1.13269 10.4263 1.79899 11.2703C2.46529 12.1144 3.39195 12.7146 4.43474 12.9773C5.47752 13.2401 6.57792 13.1507 7.56466 12.7232C8.2667 14.475 8.62665 16.3451 8.62503 18.2323V21.4687C8.62534 21.7422 8.73409 22.0043 8.92742 22.1976C9.12076 22.3909 9.38288 22.4997 9.65629 22.5H14.3439C14.6173 22.4997 14.8794 22.3909 15.0727 22.1976C15.2661 22.0043 15.3748 21.7422 15.3751 21.4687V18.2323C15.3735 16.3451 15.7335 14.475 16.4355 12.7232C17.4222 13.151 18.5228 13.2405 19.5657 12.9779C20.6086 12.7152 21.5354 12.115 22.2018 11.2708C22.8681 10.4266 23.2366 9.38581 23.2499 8.31041C23.2632 7.235 22.9205 6.18539 22.2752 5.325ZM14.6251 18.2323V21.4687C14.625 21.5433 14.5954 21.6148 14.5427 21.6675C14.4899 21.7203 14.4184 21.7499 14.3439 21.75H9.65629C9.58172 21.7499 9.51023 21.7203 9.4575 21.6675C9.40477 21.6148 9.37512 21.5433 9.37504 21.4687V18.2323C9.37675 16.2229 8.98831 14.2322 8.23128 12.3708C8.50007 12.2005 8.75152 12.0042 8.98204 11.7848L9.77892 13.6445L10.2483 14.8179C10.415 15.2335 10.5004 15.6772 10.5001 16.125C10.5001 16.2245 10.5396 16.3198 10.6099 16.3902C10.6802 16.4605 10.7756 16.5 10.8751 16.5C10.9745 16.5 11.0699 16.4605 11.1402 16.3902C11.2106 16.3198 11.2501 16.2245 11.2501 16.125C11.2506 15.5818 11.1469 15.0436 10.9447 14.5394L10.5157 13.4668L11.0253 11.0883C11.6573 11.3039 12.3429 11.3039 12.9748 11.0883L13.4845 13.4668L13.0555 14.5394C12.8533 15.0435 12.7496 15.5818 12.7501 16.125C12.7501 16.2245 12.7896 16.3198 12.8599 16.3902C12.9303 16.4605 13.0256 16.5 13.1251 16.5C13.2246 16.5 13.3199 16.4605 13.3903 16.3902C13.4606 16.3198 13.5001 16.2245 13.5001 16.125C13.4997 15.6772 13.5852 15.2335 13.7518 14.8179L14.2212 13.6445L15.0181 11.7849C15.2486 12.0043 15.5 12.2005 15.7688 12.3708C15.0118 14.2322 14.6234 16.2229 14.6251 18.2323ZM10.3209 10.7964L10.0054 12.2687L9.53231 11.165C9.55884 11.1295 9.58495 11.0935 9.61064 11.0572C9.85504 10.9858 10.0934 10.8952 10.3236 10.7863C10.3227 10.7899 10.3216 10.7931 10.3209 10.7964ZM14.3897 11.0574C14.4153 11.0937 14.4414 11.1296 14.468 11.1652L13.995 12.269L13.6794 10.7967C13.6787 10.7933 13.6776 10.7901 13.6768 10.7867C13.9069 10.8956 14.1452 10.9861 14.3895 11.0574H14.3897ZM18.3752 12.375C17.6933 12.3756 17.0219 12.2068 16.4213 11.884C15.8207 11.5611 15.3097 11.0942 14.934 10.5251C14.9333 10.524 14.9325 10.5231 14.9318 10.5221C14.6144 10.0439 14.4015 9.50396 14.3072 8.93775C14.2993 8.88892 14.2819 8.84213 14.2558 8.80007C14.2298 8.75802 14.1957 8.72152 14.1556 8.69269C14.1154 8.66385 14.0699 8.64325 14.0217 8.63207C13.9735 8.62089 13.9236 8.61934 13.8749 8.62753C13.8261 8.63571 13.7794 8.65347 13.7375 8.67976C13.6956 8.70606 13.6594 8.74038 13.6308 8.78075C13.6022 8.82112 13.5819 8.86674 13.5711 8.91499C13.5602 8.96324 13.559 9.01315 13.5675 9.06187C13.6227 9.392 13.712 9.71552 13.8339 10.0272C13.8164 10.0178 13.7987 10.009 13.7812 9.99951C13.7173 9.96472 13.6446 9.94926 13.5721 9.95502C13.4996 9.96078 13.4303 9.98751 13.3727 10.0319C12.9794 10.3353 12.4968 10.4998 12.0001 10.4998C11.5034 10.4998 11.0207 10.3353 10.6274 10.0319C10.5698 9.98751 10.5005 9.96078 10.428 9.95502C10.3555 9.94926 10.2829 9.96472 10.219 9.99951C10.2015 10.0089 10.1838 10.018 10.1662 10.0272C10.2882 9.71552 10.3775 9.392 10.4326 9.06187C10.4412 9.01315 10.4399 8.96324 10.4291 8.91499C10.4182 8.86674 10.3979 8.82112 10.3694 8.78075C10.3408 8.74038 10.3045 8.70606 10.2626 8.67976C10.2207 8.65347 10.1741 8.63571 10.1253 8.62753C10.0765 8.61934 10.0266 8.62089 9.97844 8.63207C9.93027 8.64325 9.88478 8.66385 9.8446 8.69269C9.80442 8.72152 9.77034 8.75802 9.74432 8.80007C9.7183 8.84213 9.70086 8.88892 9.693 8.93775C9.59863 9.50396 9.38577 10.0439 9.06833 10.5221C9.06763 10.5231 9.06683 10.524 9.06613 10.5251C8.76134 10.9847 8.36748 11.3785 7.90785 11.6833C7.44821 11.988 6.93213 12.1975 6.39012 12.2994C5.84811 12.4012 5.29119 12.3934 4.75227 12.2762C4.21336 12.1591 3.7034 11.9351 3.25255 11.6175C2.80171 11.2999 2.41913 10.8951 2.12744 10.4271C1.83575 9.95905 1.64087 9.43728 1.55433 8.89262C1.46779 8.34797 1.49135 7.79149 1.6236 7.2561C1.75586 6.72071 1.99413 6.21727 2.32433 5.77556C2.70896 5.26572 3.20557 4.85105 3.77584 4.56351C3.74255 4.65149 3.72281 4.74402 3.71729 4.83792C3.71242 4.88693 3.71725 4.93641 3.7315 4.98355C3.74576 5.03069 3.76916 5.07456 3.80037 5.11265C3.83158 5.15075 3.86999 5.18232 3.9134 5.20558C3.95681 5.22883 4.00438 5.2433 4.05339 5.24817C4.066 5.24939 4.07851 5.25004 4.09089 5.25004C4.18386 5.24994 4.27348 5.2153 4.34236 5.15285C4.41124 5.0904 4.45446 5.00459 4.46364 4.91208C4.49247 4.6226 4.55884 4.3381 4.66108 4.06575C4.67322 4.03336 4.70608 3.95208 4.70969 3.94345C5.03006 3.18028 5.61972 2.56147 6.36656 2.20466C7.11339 1.84786 7.96531 1.77797 8.76031 2.00826C8.78591 2.01567 8.86306 2.03845 8.88219 2.04483C9.39272 2.21457 9.85549 2.50345 10.2322 2.88754C10.2666 2.923 10.3077 2.95131 10.3531 2.97084C10.3984 2.99038 10.4472 3.00075 10.4966 3.00137C10.546 3.00199 10.5951 2.99284 10.6409 2.97444C10.6868 2.95605 10.7286 2.92878 10.7638 2.8942C10.7991 2.85961 10.8272 2.8184 10.8465 2.77292C10.8658 2.72744 10.876 2.6786 10.8763 2.6292C10.8767 2.57979 10.8673 2.5308 10.8487 2.48504C10.8301 2.43928 10.8026 2.39765 10.7678 2.36254C10.4283 2.01686 10.0309 1.73327 9.59362 1.52461C10.2949 1.02098 11.1366 0.750086 12 0.750086C12.8635 0.750086 13.7051 1.02098 14.4064 1.52461C13.9692 1.73326 13.5718 2.01684 13.2323 2.3625C13.1633 2.43364 13.1252 2.52922 13.1264 2.62834C13.1277 2.72746 13.1681 2.82206 13.2389 2.89145C13.3097 2.96084 13.4051 2.99938 13.5042 2.99864C13.6034 2.9979 13.6982 2.95794 13.7679 2.8875C14.1446 2.5034 14.6074 2.21453 15.1179 2.04478C15.1371 2.0384 15.2143 2.01562 15.2398 2.00822C16.0586 1.77099 16.9369 1.85252 17.6981 2.2364C18.4593 2.62029 19.047 3.27809 19.343 4.07756C19.3531 4.10479 19.3858 4.19606 19.3987 4.23731C19.4676 4.45689 19.5138 4.68297 19.5365 4.91198C19.5456 5.00452 19.5889 5.09034 19.6577 5.15281C19.7266 5.21527 19.8163 5.2499 19.9093 5.25C19.9216 5.25 19.9342 5.24934 19.9468 5.24812C19.9958 5.24326 20.0433 5.22879 20.0868 5.20555C20.1302 5.1823 20.1686 5.15073 20.1998 5.11264C20.231 5.07455 20.2544 5.03068 20.2687 4.98355C20.2829 4.93641 20.2878 4.88693 20.2829 4.83792C20.2744 4.74899 20.2608 4.66062 20.2423 4.57322C20.805 4.8603 21.2951 5.27144 21.6757 5.77561C22.2134 6.48823 22.503 7.35729 22.5002 8.25C22.499 9.34363 22.064 10.3921 21.2907 11.1654C20.5173 11.9388 19.4688 12.3738 18.3752 12.375Z" fill="#FB6D3A"/>
<path d="M5.29694 7.96875C5.52993 7.96875 5.71881 7.77987 5.71881 7.54688C5.71881 7.31388 5.52993 7.125 5.29694 7.125C5.06394 7.125 4.87506 7.31388 4.87506 7.54688C4.87506 7.77987 5.06394 7.96875 5.29694 7.96875Z" fill="#FB6D3A"/>
<path d="M19.4534 10.5C19.6864 10.5 19.8752 10.3111 19.8752 10.0781C19.8752 9.84513 19.6864 9.65625 19.4534 9.65625C19.2204 9.65625 19.0315 9.84513 19.0315 10.0781C19.0315 10.3111 19.2204 10.5 19.4534 10.5Z" fill="#FB6D3A"/>
<path d="M13.0782 6.46875C13.3112 6.46875 13.5001 6.27987 13.5001 6.04688C13.5001 5.81388 13.3112 5.625 13.0782 5.625C12.8452 5.625 12.6563 5.81388 12.6563 6.04688C12.6563 6.27987 12.8452 6.46875 13.0782 6.46875Z" fill="#FB6D3A"/>
<path d="M18.0471 5.25C18.2801 5.25 18.469 5.06112 18.469 4.82812C18.469 4.59513 18.2801 4.40625 18.0471 4.40625C17.8141 4.40625 17.6252 4.59513 17.6252 4.82812C17.6252 5.06112 17.8141 5.25 18.0471 5.25Z" fill="#FB6D3A"/>
<path d="M6.04694 9.75C6.27993 9.75 6.46881 9.56112 6.46881 9.32812C6.46881 9.09513 6.27993 8.90625 6.04694 8.90625C5.81394 8.90625 5.62506 9.09513 5.62506 9.32812C5.62506 9.56112 5.81394 9.75 6.04694 9.75Z" fill="#FB6D3A"/>
<path d="M16.0785 4.96875C16.3115 4.96875 16.5004 4.77987 16.5004 4.54688C16.5004 4.31388 16.3115 4.125 16.0785 4.125C15.8455 4.125 15.6566 4.31388 15.6566 4.54688C15.6566 4.77987 15.8455 4.96875 16.0785 4.96875Z" fill="#FB6D3A"/>
<path d="M8.20319 3.84375C8.43618 3.84375 8.62506 3.65487 8.62506 3.42188C8.62506 3.18888 8.43618 3 8.20319 3C7.97019 3 7.78131 3.18888 7.78131 3.42188C7.78131 3.65487 7.97019 3.84375 8.20319 3.84375Z" fill="#FB6D3A"/>
<path d="M4.59381 9.375C4.85269 9.375 5.06256 9.16513 5.06256 8.90625C5.06256 8.64737 4.85269 8.4375 4.59381 8.4375C4.33493 8.4375 4.12506 8.64737 4.12506 8.90625C4.12506 9.16513 4.33493 9.375 4.59381 9.375Z" fill="#FB6D3A"/>
<path d="M9.28131 5.25C9.54019 5.25 9.75006 5.04013 9.75006 4.78125C9.75006 4.52237 9.54019 4.3125 9.28131 4.3125C9.02243 4.3125 8.81256 4.52237 8.81256 4.78125C8.81256 5.04013 9.02243 5.25 9.28131 5.25Z" fill="#FB6D3A"/>
<path d="M16.7815 6.75C17.0404 6.75 17.2502 6.54013 17.2502 6.28125C17.2502 6.02237 17.0404 5.8125 16.7815 5.8125C16.5226 5.8125 16.3127 6.02237 16.3127 6.28125C16.3127 6.54013 16.5226 6.75 16.7815 6.75Z" fill="#FB6D3A"/>
<path d="M11.719 7.875C11.9779 7.875 12.1877 7.66513 12.1877 7.40625C12.1877 7.14737 11.9779 6.9375 11.719 6.9375C11.4601 6.9375 11.2502 7.14737 11.2502 7.40625C11.2502 7.66513 11.4601 7.875 11.719 7.875Z" fill="#FB6D3A"/>
<path d="M20.1565 9.375C20.4154 9.375 20.6252 9.16513 20.6252 8.90625C20.6252 8.64737 20.4154 8.4375 20.1565 8.4375C19.8976 8.4375 19.6877 8.64737 19.6877 8.90625C19.6877 9.16513 19.8976 9.375 20.1565 9.375Z" fill="#FB6D3A"/>
<path d="M13.1251 17.25C13.0256 17.25 12.9302 17.2895 12.8599 17.3598C12.7896 17.4302 12.7501 17.5255 12.7501 17.625V18.375C12.7501 18.4745 12.7896 18.5698 12.8599 18.6402C12.9302 18.7105 13.0256 18.75 13.1251 18.75C13.2245 18.75 13.3199 18.7105 13.3902 18.6402C13.4606 18.5698 13.5001 18.4745 13.5001 18.375V17.625C13.5001 17.5255 13.4606 17.4302 13.3902 17.3598C13.3199 17.2895 13.2245 17.25 13.1251 17.25Z" fill="#FB6D3A"/>
</svg>
