<svg width="24" height="24" viewBox="0 0 24 24" fill="none" xmlns="http://www.w3.org/2000/svg">
<path d="M20.2159 3.78293C19.0821 2.64894 17.6223 2.01576 16.1054 2.00002C14.54 1.98474 13.0154 2.63694 11.8115 3.83918C10.7188 4.93048 9.91314 6.41883 9.60111 7.92258C9.25912 9.5699 8.47169 11.0474 7.32384 12.1953L7.274 12.2451C7.16271 12.3564 7.10009 12.5074 7.10009 12.6648C7.10009 12.8223 7.16259 12.9732 7.27392 13.0845L7.53677 13.3474L5.28274 15.6016C4.93552 15.4067 4.53739 15.3064 4.13407 15.3191C3.52009 15.3382 2.95735 15.6031 2.54946 16.0651C1.81747 16.8943 1.81684 18.1454 2.54809 18.9751C2.94134 19.4215 3.4838 19.6861 4.07556 19.7202C4.18188 19.7263 4.27337 19.8178 4.27946 19.9242C4.31353 20.5159 4.5781 21.0584 5.02442 21.4517C5.439 21.8171 5.95872 21.9998 6.47853 21.9998C6.99892 21.9998 7.51943 21.8166 7.93423 21.4503C8.39622 21.0424 8.66119 20.4796 8.68025 19.8656C8.69275 19.4621 8.59267 19.0641 8.39771 18.7168L10.6517 16.4626L10.9148 16.7257C11.0306 16.8415 11.1826 16.8995 11.3344 16.8995C11.4862 16.8995 11.638 16.8416 11.7539 16.7259L11.804 16.6758C12.9513 15.5284 14.4293 14.7408 16.0782 14.398C17.5795 14.0858 19.0658 13.2815 20.1558 12.1913C21.3605 10.9867 22.0153 9.46129 21.9998 7.89621C21.9847 6.3791 21.3512 4.91833 20.2159 3.78293ZM7.19685 18.2391C6.96509 18.4708 6.96509 18.8466 7.19685 19.0784C7.3972 19.2788 7.50271 19.5452 7.49392 19.8287C7.48509 20.1118 7.36247 20.3717 7.14864 20.5605C6.77321 20.892 6.18474 20.8923 5.809 20.5612C5.60239 20.3791 5.48001 20.1286 5.46431 19.856C5.42337 19.144 4.8556 18.5761 4.14364 18.5352C3.87091 18.5195 3.62048 18.397 3.43845 18.1904C3.10735 17.8147 3.10766 17.2262 3.43915 16.8507C3.6279 16.6369 3.88778 16.5143 4.17087 16.5054C4.18185 16.5051 4.19278 16.5049 4.20368 16.5049C4.47485 16.5049 4.72853 16.6099 4.92114 16.8025C5.15282 17.0342 5.52857 17.0343 5.76036 16.8025L8.37599 14.1867L9.81251 15.6233L7.19685 18.2391ZM19.3166 11.3519C18.3995 12.2691 17.0986 12.9734 15.8367 13.2357C14.1372 13.589 12.5947 14.3603 11.3448 15.4771L8.52236 12.6544C9.63966 11.4039 10.4107 9.86187 10.7631 8.16377C11.0255 6.89985 11.7309 5.59713 12.6502 4.67905C14.6169 2.71492 17.4458 2.69105 19.3766 4.62221C21.3088 6.55455 21.2835 9.38484 19.3166 11.3519Z" fill="#FB6D3A"/>
<ellipse cx="15.4091" cy="4.95428" rx="0.681819" ry="0.681818" fill="#FB6D3A"/>
<ellipse cx="17.2273" cy="6.31805" rx="0.681819" ry="0.681818" fill="#FB6D3A"/>
<ellipse cx="14.5001" cy="7.22723" rx="0.681818" ry="0.681818" fill="#FB6D3A"/>
</svg>
