<svg width="24" height="24" viewBox="0 0 24 24" fill="none" xmlns="http://www.w3.org/2000/svg">
<path d="M19.801 5.82567C20.07 5.01943 20.0662 4.14786 19.7904 3.34393C19.5146 2.53999 18.9818 1.84783 18.2734 1.37305C17.0594 0.558849 15.7574 0.363249 14.6074 0.822458C13.4426 1.28761 12.5919 2.39166 12.2733 3.85148C12.1699 4.32639 12.0739 4.83292 11.9882 5.35708C11.9357 5.67739 11.8735 6.0094 11.8034 6.34389C11.7946 6.39086 11.7712 6.43388 11.7363 6.46681C11.7015 6.49973 11.6571 6.52088 11.6095 6.52723C11.5607 6.53577 11.5104 6.52907 11.4655 6.50804C11.4207 6.48701 11.3835 6.45269 11.359 6.40979C11.053 5.88717 10.7883 5.38811 10.5723 4.92622C10.4531 4.67341 10.283 4.44761 10.0726 4.26278C9.86209 4.07795 9.61572 3.93802 9.34867 3.85167C9.09275 3.76658 8.82182 3.73538 8.55311 3.76005C8.2844 3.78472 8.02379 3.86472 7.78787 3.99497C7.32944 4.24539 6.9886 4.66517 6.83906 5.1635C6.68952 5.66184 6.7433 6.19867 6.98878 6.65788C7.73796 8.08321 9.25271 9.53651 10.3913 10.5047C10.4289 10.5363 10.4555 10.5787 10.4676 10.6261C10.4797 10.6735 10.4765 10.7234 10.4586 10.7689C9.72095 12.6095 8.78471 14.3651 7.66628 16.0049C7.49941 15.8009 7.34699 15.6014 7.21384 15.4099C7.1014 15.2462 6.95283 15.1103 6.77947 15.0124C6.60611 14.9146 6.41256 14.8574 6.21358 14.8453C6.01564 14.8321 5.8173 14.8642 5.63385 14.9393C5.45039 15.0144 5.28674 15.1303 5.15551 15.2783C4.94329 15.5165 4.82615 15.8238 4.8262 16.1421C4.8254 16.3623 4.88168 16.5791 4.9896 16.7714C5.27509 17.2851 5.59343 17.7801 5.94266 18.2533C5.52336 18.7399 5.0889 19.206 4.63929 19.6518C4.39614 19.8939 4.21325 20.1892 4.10519 20.5141C3.99714 20.839 3.96691 21.1844 4.01692 21.523C4.06693 21.8615 4.19579 22.1838 4.39323 22.4641C4.59068 22.7443 4.85124 22.9749 5.15416 23.1373L5.19945 23.1616C5.51233 23.3309 5.86277 23.4198 6.21898 23.4203C6.64352 23.4204 7.05808 23.2923 7.40769 23.0528C9.14731 21.8629 11.3681 19.6885 13.3482 17.2358C13.374 17.2029 13.4081 17.1774 13.447 17.1617C13.4859 17.146 13.5282 17.1408 13.5698 17.1465C14.7588 17.3134 15.9325 17.5745 17.0796 17.9276C17.3599 18.0212 17.6587 18.0466 17.9508 18.0016C18.243 17.9567 18.5201 17.8427 18.7588 17.6693C18.9959 17.5003 19.1889 17.2773 19.3215 17.0189C19.454 16.7605 19.5224 16.4743 19.5209 16.1842V16.1199C19.5271 15.6444 19.3717 15.1808 19.0799 14.8041C18.7881 14.4275 18.377 14.1597 17.913 14.0443C17.3686 13.9209 16.8139 13.8474 16.2559 13.825C16.2149 13.8231 16.1751 13.8105 16.1406 13.7884C16.1062 13.7662 16.0782 13.7353 16.0597 13.6989C16.0398 13.6615 16.0304 13.6195 16.0323 13.5773C16.0342 13.535 16.0475 13.4941 16.0707 13.4587C17.6186 11.0729 18.8711 8.51 19.801 5.82567ZM5.57828 16.4446C5.52655 16.3521 5.49998 16.2479 5.5012 16.1421C5.50144 15.9882 5.55809 15.8397 5.66056 15.7244C5.72385 15.6529 5.80277 15.5967 5.89128 15.5602C5.97979 15.5236 6.07554 15.5078 6.17119 15.5137C6.26822 15.5197 6.36257 15.5477 6.44706 15.5955C6.53155 15.6433 6.60394 15.7097 6.6587 15.7896C6.83385 16.0421 7.03811 16.3055 7.26529 16.575C6.98268 16.9666 6.69036 17.3484 6.38835 17.7205C6.09396 17.311 5.82349 16.885 5.57828 16.4446ZM15.4607 14.006C15.5329 14.1469 15.6414 14.2663 15.7751 14.352C15.9088 14.4376 16.063 14.4865 16.222 14.4936C16.7381 14.5141 17.2512 14.5816 17.7548 14.6953C18.0715 14.7757 18.3515 14.96 18.5496 15.2184C18.7477 15.4768 18.8523 15.7941 18.8464 16.1189V16.1842C18.8475 16.3684 18.8042 16.5501 18.7201 16.7142C18.636 16.8782 18.5135 17.0199 18.363 17.1272C18.2104 17.2378 18.0333 17.3104 17.8466 17.339C17.6599 17.3675 17.4691 17.3512 17.2901 17.2913C16.9579 17.1829 16.6178 17.0862 16.2792 16.9992C16.444 16.6404 16.6517 16.1246 16.6607 15.7869C16.6631 15.698 16.6298 15.6118 16.5682 15.5472C16.5377 15.5153 16.5012 15.4896 16.4608 15.4717C16.4203 15.4538 16.3767 15.444 16.3324 15.4428C16.243 15.4405 16.1563 15.4736 16.0914 15.5348C16.0265 15.596 15.9887 15.6804 15.9863 15.7693C15.9137 16.1425 15.7864 16.5031 15.6086 16.8396C14.8864 16.6789 14.2035 16.5624 13.6665 16.484C13.5087 16.4615 13.3477 16.4803 13.1995 16.5386C13.0513 16.5969 12.9209 16.6926 12.8214 16.8164C12.5901 17.1026 12.3562 17.3844 12.1196 17.6617C11.6505 17.483 11.2047 17.2489 10.7917 16.9645C10.7574 16.9368 10.7178 16.916 10.6754 16.9034C10.6329 16.8909 10.5884 16.8867 10.5444 16.8913C10.5003 16.8958 10.4576 16.9089 10.4186 16.9299C10.3797 16.9508 10.3453 16.9792 10.3173 17.0134C10.2894 17.0475 10.2685 17.0869 10.2559 17.1291C10.2432 17.1713 10.2391 17.2155 10.2436 17.2593C10.2482 17.3031 10.2614 17.3456 10.2825 17.3843C10.3036 17.423 10.3321 17.4573 10.3665 17.485C10.7663 17.7724 11.1994 18.011 11.6563 18.1958C10.5622 19.4526 9.37069 20.6221 8.09271 21.6938C7.7569 21.4404 7.45284 21.148 7.18706 20.8227C7.16488 20.7846 7.13537 20.7512 7.10022 20.7245C7.06507 20.6977 7.02496 20.6781 6.98219 20.6668C6.93941 20.6554 6.89481 20.6526 6.85093 20.6584C6.80705 20.6642 6.76474 20.6785 6.72643 20.7005C6.68812 20.7226 6.65455 20.7519 6.62764 20.7869C6.60074 20.8218 6.58102 20.8617 6.56961 20.9042C6.5582 20.9468 6.55533 20.9911 6.56116 21.0347C6.56699 21.0784 6.58141 21.1204 6.60359 21.1585C6.7693 21.4432 7.22348 21.8482 7.55163 22.1197C7.37185 22.2555 7.19515 22.3846 7.02462 22.5013C6.80507 22.6505 6.54817 22.7363 6.28251 22.749C6.01685 22.7617 5.75285 22.7009 5.51989 22.5733L5.47461 22.5488C5.26229 22.4357 5.07982 22.2745 4.94207 22.078C4.80431 21.8816 4.71516 21.6556 4.68188 21.4185C4.64662 21.1848 4.66737 20.9461 4.74244 20.7218C4.81751 20.4976 4.94478 20.2941 5.11389 20.128C5.63705 19.6108 6.1394 19.0632 6.6217 18.4914C6.62729 18.4851 6.63249 18.4785 6.6377 18.4722C7.69874 17.207 8.64047 15.8475 9.45099 14.4108C9.71947 14.5619 9.99872 14.6933 10.2865 14.8039C10.37 14.8335 10.4618 14.8293 10.5421 14.7921C10.6225 14.755 10.6849 14.6879 10.7158 14.6053C10.7468 14.5228 10.7438 14.4314 10.7076 14.3511C10.6714 14.2707 10.6047 14.2077 10.5222 14.1757C10.2647 14.0761 10.0148 13.9581 9.77452 13.8227C10.2623 12.9123 10.6997 11.9763 11.0848 11.0185C11.155 10.843 11.1681 10.65 11.1224 10.4667C11.0766 10.2834 10.9743 10.1189 10.8297 9.9963C9.90193 9.22522 9.0534 8.36453 8.29658 7.42687C8.53166 7.11901 8.92822 6.6462 9.23518 6.47129C9.2736 6.4494 9.30731 6.4202 9.33439 6.38536C9.36147 6.35052 9.38137 6.31072 9.39298 6.26823C9.40458 6.22574 9.40765 6.18139 9.40202 6.13772C9.39638 6.09405 9.38215 6.05191 9.36014 6.01371C9.33812 5.9755 9.30875 5.94199 9.27371 5.91507C9.23867 5.88815 9.19863 5.86836 9.1559 5.85682C9.11316 5.84528 9.06855 5.84223 9.02463 5.84783C8.9807 5.85343 8.93832 5.86758 8.89989 5.88947C8.51007 6.15272 8.16789 6.4797 7.88788 6.85655C7.77689 6.68643 7.67592 6.51631 7.58651 6.34695C7.42369 6.04258 7.38788 5.68673 7.48682 5.35632C7.58576 5.0259 7.8115 4.74747 8.11525 4.58119C8.30234 4.47748 8.51303 4.42313 8.72724 4.42333C8.86746 4.4237 9.00674 4.44601 9.13999 4.48943C9.31896 4.54718 9.48411 4.64085 9.6252 4.76462C9.7663 4.88839 9.88034 5.03963 9.96028 5.20899C10.1851 5.68946 10.4593 6.20691 10.7759 6.74716C10.8688 6.90599 11.0078 7.03319 11.1746 7.11202C11.3415 7.19085 11.5285 7.21763 11.711 7.18884C11.8935 7.16005 12.0629 7.07703 12.1971 6.95071C12.3312 6.82438 12.4238 6.66066 12.4626 6.48106C12.535 6.13622 12.599 5.79483 12.6531 5.4657C12.7063 5.13964 12.7636 4.82232 12.8248 4.51376C13.2809 4.74039 13.7045 4.92411 13.7274 4.93408C13.8094 4.96964 13.9022 4.97137 13.9855 4.93887C14.0688 4.90637 14.1357 4.84232 14.1715 4.76079C14.2072 4.67927 14.209 4.58696 14.1763 4.50416C14.1436 4.42137 14.0792 4.35487 13.9972 4.31931C13.991 4.31662 13.4673 4.08941 12.9711 3.83538C13.2653 2.67654 13.9463 1.81004 14.8595 1.44566C15.7944 1.07074 16.8731 1.24316 17.8965 1.929C18.4042 2.2697 18.8046 2.74624 19.0514 3.30359C19.2982 3.86094 19.3814 4.47635 19.2914 5.07872C18.7133 4.93133 18.1493 4.73395 17.6059 4.48885C17.5664 4.46709 17.5229 4.45345 17.478 4.44872C17.4331 4.44399 17.3877 4.44828 17.3445 4.46133C17.3013 4.47438 17.2611 4.49593 17.2264 4.52469C17.1918 4.55346 17.1633 4.58885 17.1426 4.62878C17.1219 4.66871 17.1096 4.71235 17.1062 4.75713C17.1028 4.8019 17.1086 4.84689 17.123 4.88942C17.1375 4.93196 17.1604 4.97118 17.1904 5.00475C17.2203 5.03832 17.2568 5.06555 17.2976 5.08485C17.8849 5.35284 18.4953 5.56801 19.1212 5.72778C18.7753 6.73065 18.3782 7.71536 17.9315 8.67806C17.4334 8.5294 16.2921 8.15908 15.6512 7.71136C15.615 7.68604 15.5741 7.66806 15.5309 7.65846C15.4876 7.64885 15.4429 7.6478 15.3993 7.65537C15.3557 7.66294 15.314 7.67898 15.2766 7.70257C15.2392 7.72617 15.2068 7.75685 15.1813 7.79288C15.1559 7.82891 15.1378 7.86957 15.1281 7.91254C15.1185 7.95551 15.1174 7.99996 15.125 8.04334C15.1326 8.08672 15.1488 8.12819 15.1725 8.16537C15.1962 8.20255 15.2271 8.23472 15.2633 8.26004C15.9484 8.73898 17.07 9.11773 17.6429 9.29225C17.0037 10.6009 16.2887 11.8716 15.5015 13.0979C15.4146 13.2322 15.365 13.387 15.3578 13.5465C15.3506 13.706 15.3861 13.8646 15.4607 14.006Z" fill="#FB6D3A"/>
<path d="M8.99285 19.3329C8.8306 19.4915 8.66957 19.6456 8.50977 19.7952C8.44464 19.8562 8.40653 19.9404 8.40384 20.0293C8.40115 20.1182 8.43409 20.2045 8.49541 20.2692C8.55674 20.334 8.64143 20.3719 8.73085 20.3746C8.82027 20.3772 8.9071 20.3445 8.97223 20.2835C9.13563 20.1303 9.30025 19.9727 9.4661 19.8107C9.49845 19.78 9.52434 19.7432 9.54226 19.7025C9.56018 19.6617 9.56976 19.6179 9.57046 19.5734C9.57116 19.5289 9.56296 19.4848 9.54633 19.4435C9.5297 19.4022 9.50498 19.3647 9.47361 19.333C9.44223 19.3013 9.40483 19.2761 9.36358 19.2589C9.32233 19.2418 9.27806 19.2329 9.23334 19.2329C9.18861 19.2329 9.14434 19.2417 9.10308 19.2589C9.06183 19.2761 9.02442 19.3012 8.99304 19.3329H8.99285Z" fill="#FB6D3A"/>
<path d="M15.0992 10.5473C15.0926 10.5446 14.4297 10.2803 13.922 10.0214C13.8826 10.0013 13.8396 9.9891 13.7955 9.9855C13.7513 9.9819 13.7069 9.98697 13.6647 10.0004C13.6225 10.0139 13.5834 10.0355 13.5497 10.064C13.5159 10.0925 13.4881 10.1273 13.4678 10.1665C13.4476 10.2056 13.4353 10.2484 13.4317 10.2923C13.428 10.3362 13.4332 10.3803 13.4467 10.4223C13.4602 10.4642 13.482 10.5031 13.5106 10.5367C13.5393 10.5702 13.5743 10.5979 13.6137 10.618C14.15 10.8914 14.8199 11.1587 14.8481 11.17C14.9311 11.203 15.024 11.2019 15.1062 11.1668C15.1884 11.1318 15.2532 11.0657 15.2864 10.9832C15.3197 10.9006 15.3185 10.8083 15.2833 10.7266C15.2481 10.6448 15.1816 10.5804 15.0986 10.5473H15.0992Z" fill="#FB6D3A"/>
</svg>
