<svg width="24" height="24" viewBox="0 0 24 24" fill="none" xmlns="http://www.w3.org/2000/svg">
<g clip-path="url(#clip0_229_425)">
<path d="M16.8793 8.50786C16.9389 8.58742 17.0278 8.64002 17.1262 8.65409C17.2247 8.66815 17.3247 8.64253 17.4043 8.58286C17.4838 8.52318 17.5364 8.43435 17.5505 8.33589C17.5646 8.23743 17.5389 8.13742 17.4793 8.05786C17.383 7.92951 17.2808 7.80286 17.1754 7.68145C17.1433 7.64383 17.104 7.61294 17.0599 7.59057C17.0157 7.5682 16.9676 7.55478 16.9183 7.55109C16.8689 7.5474 16.8193 7.55352 16.7724 7.56908C16.7254 7.58465 16.682 7.60935 16.6446 7.64178C16.6072 7.6742 16.5766 7.7137 16.5546 7.758C16.5325 7.8023 16.5195 7.85053 16.5162 7.8999C16.5128 7.94927 16.5193 7.99881 16.5352 8.04566C16.5512 8.09251 16.5762 8.13575 16.6089 8.17289C16.7026 8.28103 16.7936 8.39372 16.8793 8.50786Z" fill="#FB6D3A"/>
<path d="M17.8807 14.5889C17.9266 14.6066 17.9756 14.6151 18.0249 14.6139C18.0741 14.6126 18.1227 14.6017 18.1677 14.5817C18.2127 14.5617 18.2533 14.533 18.2872 14.4973C18.3212 14.4616 18.3477 14.4195 18.3654 14.3735C18.9067 12.9655 18.9475 11.4142 18.4808 9.97974C18.4499 9.88518 18.3828 9.80673 18.2941 9.76166C18.2055 9.71659 18.1025 9.70859 18.008 9.73941C17.9134 9.77024 17.835 9.83737 17.7899 9.92603C17.7448 10.0147 17.7368 10.1176 17.7677 10.2122C18.181 11.4829 18.1449 12.857 17.6653 14.1042C17.6296 14.1971 17.6322 14.3003 17.6726 14.3912C17.713 14.482 17.7878 14.5532 17.8807 14.5889Z" fill="#FB6D3A"/>
<path d="M6.39522 13.7069C6.46487 13.7324 6.54051 13.7366 6.61259 13.7191C6.68466 13.7016 6.74993 13.6632 6.80014 13.6086C6.85034 13.554 6.88323 13.4857 6.89465 13.4124C6.90606 13.3392 6.89549 13.2641 6.86426 13.1969C6.83303 13.1296 6.78256 13.0731 6.71922 13.0345C6.65588 12.9959 6.58252 12.977 6.50842 12.9801C6.43431 12.9832 6.36279 13.0082 6.3029 13.0519C6.24301 13.0957 6.19744 13.1562 6.17195 13.2259C6.13777 13.3193 6.14209 13.4224 6.18396 13.5126C6.22583 13.6028 6.30182 13.6727 6.39522 13.7069Z" fill="#FB6D3A"/>
<path d="M4.97342 12.0789C5.04307 12.1045 5.11872 12.1087 5.19079 12.0912C5.26287 12.0737 5.32814 12.0353 5.37836 11.9807C5.42857 11.9261 5.46146 11.8578 5.47288 11.7846C5.4843 11.7113 5.47374 11.6362 5.44252 11.569C5.4113 11.5017 5.36083 11.4452 5.29749 11.4066C5.23415 11.368 5.16079 11.349 5.08669 11.3521C5.01258 11.3552 4.94106 11.3802 4.88117 11.424C4.82127 11.4677 4.7757 11.5283 4.7502 11.5979C4.71602 11.6913 4.72034 11.7944 4.7622 11.8847C4.80406 11.9749 4.88004 12.0448 4.97342 12.0789Z" fill="#FB6D3A"/>
<path d="M5.39237 13.2639C5.41787 13.1943 5.42214 13.1186 5.40465 13.0466C5.38715 12.9745 5.34868 12.9092 5.29409 12.859C5.23951 12.8088 5.17126 12.7759 5.09797 12.7645C5.02469 12.7531 4.94967 12.7636 4.88239 12.7948C4.81511 12.8261 4.7586 12.8765 4.72 12.9399C4.68141 13.0032 4.66246 13.0766 4.66555 13.1507C4.66864 13.2248 4.69364 13.2963 4.73738 13.3562C4.78112 13.4161 4.84164 13.4617 4.91129 13.4872C4.95753 13.5041 5.00666 13.5117 5.05587 13.5097C5.10507 13.5076 5.15339 13.4959 5.19806 13.4752C5.24273 13.4545 5.28289 13.4251 5.31623 13.3889C5.34957 13.3526 5.37544 13.3102 5.39237 13.2639Z" fill="#FB6D3A"/>
<path d="M5.73746 14.3556C5.66781 14.3301 5.59217 14.3259 5.5201 14.3434C5.44803 14.3609 5.38276 14.3993 5.33256 14.4539C5.28235 14.5085 5.24946 14.5768 5.23805 14.6501C5.22664 14.7233 5.23721 14.7984 5.26843 14.8656C5.29965 14.9329 5.35012 14.9894 5.41345 15.028C5.47679 15.0666 5.55015 15.0855 5.62425 15.0824C5.69835 15.0793 5.76987 15.0543 5.82976 15.0106C5.88965 14.9669 5.93523 14.9063 5.96073 14.8367C5.97766 14.7904 5.98532 14.7413 5.98326 14.6921C5.9812 14.6429 5.96947 14.5946 5.94874 14.5499C5.92801 14.5052 5.89868 14.4651 5.86243 14.4317C5.82617 14.3984 5.78371 14.3725 5.73746 14.3556Z" fill="#FB6D3A"/>
<path d="M6.75947 15.9279C6.68982 15.9024 6.61418 15.8981 6.54211 15.9156C6.47003 15.9331 6.40476 15.9716 6.35455 16.0262C6.30434 16.0807 6.27145 16.149 6.26003 16.2223C6.24861 16.2956 6.25917 16.3706 6.29039 16.4379C6.3216 16.5051 6.37207 16.5617 6.4354 16.6002C6.49874 16.6388 6.57209 16.6578 6.64619 16.6547C6.7203 16.6516 6.79182 16.6266 6.85171 16.5829C6.91161 16.5391 6.95719 16.4786 6.98269 16.409C6.99962 16.3627 7.00728 16.3136 7.00522 16.2644C7.00317 16.2152 6.99144 16.1669 6.97072 16.1222C6.94999 16.0775 6.92066 16.0374 6.88442 16.004C6.84817 15.9707 6.80572 15.9448 6.75947 15.9279Z" fill="#FB6D3A"/>
<path d="M7.27508 14.519C7.20544 14.4935 7.12979 14.4892 7.05769 14.5066C6.9856 14.5241 6.92031 14.5626 6.87007 14.6171C6.81984 14.6717 6.78692 14.74 6.77548 14.8133C6.76404 14.8866 6.7746 14.9616 6.80581 15.0289C6.83702 15.0962 6.88749 15.1527 6.95083 15.1913C7.01417 15.2299 7.08754 15.2489 7.16165 15.2458C7.23577 15.2427 7.3073 15.2177 7.3672 15.1739C7.4271 15.1302 7.47267 15.0696 7.49816 15C7.53232 14.9066 7.52801 14.8035 7.48618 14.7133C7.44435 14.6231 7.36842 14.5532 7.27508 14.519Z" fill="#FB6D3A"/>
<path d="M22.8817 15.375H19.5462C20.0446 14.3198 20.3019 13.167 20.2994 12C20.2994 7.8 17.0014 4.32337 12.7525 3.81431V1.125C12.7525 1.02554 12.713 0.930161 12.6427 0.859835C12.5724 0.789509 12.477 0.75 12.3775 0.75H10.9244C10.8249 0.75 10.7296 0.789509 10.6592 0.859835C10.5889 0.930161 10.5494 1.02554 10.5494 1.125V2.295L9.48064 2.43211L7.30822 2.709C5.65266 2.91696 4.14245 3.7594 3.09575 5.05884L0.833378 7.85691C0.783898 7.91811 0.754929 7.99333 0.750575 8.07191C0.74622 8.1505 0.7667 8.22846 0.809114 8.29476C0.851529 8.36105 0.913727 8.41232 0.986899 8.44131C1.06007 8.47029 1.14051 8.47552 1.21682 8.45625L4.33714 7.66814C3.42924 9.06258 2.98175 10.7067 3.05774 12.369C3.13373 14.0312 3.72936 15.6277 4.76071 16.9335C5.83492 18.3051 7.30146 19.317 8.96507 19.8344C9.26724 20.2858 9.61718 20.7033 10.0088 21.0797C11.4703 22.4859 13.418 23.2605 15.4932 23.2605C17.5684 23.2605 19.5163 22.486 20.9776 21.0797C21.6994 20.3926 22.2737 19.5656 22.6655 18.6494C23.0574 17.7331 23.2585 16.7466 23.2567 15.75C23.2567 15.6505 23.2172 15.5552 23.1469 15.4848C23.0765 15.4145 22.9811 15.375 22.8817 15.375ZM11.7026 19.4197C10.7948 18.552 10.2424 17.3776 10.1528 16.125H14.6743L12.1969 19.8413C12.0237 19.711 11.8586 19.5701 11.7026 19.4197ZM15.375 16.426L17.9852 20.3413C17.1811 20.7414 16.2925 20.9419 15.3945 20.9258C14.4965 20.9097 13.6156 20.6775 12.8264 20.2489L15.375 16.426ZM18.63 19.9566L16.0757 16.125H20.8338C20.7442 17.3776 20.1918 18.552 19.284 19.4197C19.0806 19.6157 18.8619 19.7952 18.63 19.9566ZM11.2994 1.5H12.0025V3.75H11.2994V1.5ZM10.5494 3.82031C10.0574 3.88173 9.57145 3.98418 9.09655 4.12659L9.7453 3.15431L10.5496 3.05119L10.5494 3.82031ZM8.24136 4.05703L7.97778 4.45214C7.94628 4.49934 7.91371 4.54589 7.8808 4.59234C7.44933 4.79521 7.03522 5.03312 6.64264 5.30367L6.66608 5.04844L8.24136 4.05703ZM7.40296 3.453L7.89196 3.39066L5.42952 4.94063C5.40139 4.92619 4.48011 4.719 4.48011 4.719C5.31403 4.0274 6.32803 3.5882 7.40296 3.453ZM3.67878 5.53036C3.73007 5.46695 3.7826 5.40488 3.83638 5.34413C3.84332 5.34609 3.85016 5.34825 3.85728 5.34984L4.54053 5.49984L2.83621 6.57263L3.67878 5.53036ZM4.62097 6.82294L3.3275 7.14966L5.86677 5.5515L5.83119 5.93766C5.56428 6.17315 5.31246 6.42522 5.07721 6.69234C4.95102 6.73214 4.73539 6.79406 4.62088 6.82294H4.62097ZM5.35175 16.4719C4.34551 15.1986 3.79853 13.6229 3.79939 12C3.79939 7.8645 7.33208 4.5 11.6744 4.5C16.0167 4.5 19.5494 7.8645 19.5494 12C19.5519 13.1758 19.2638 14.334 18.7107 15.3716C18.71 15.3727 18.7097 15.3739 18.7091 15.375H8.10467C8.00522 15.375 7.90984 15.4145 7.83951 15.4848C7.76918 15.5552 7.72967 15.6505 7.72967 15.75C7.72754 16.8096 7.95509 17.8571 8.39666 18.8203C7.20381 18.3002 6.15787 17.4935 5.35175 16.4719ZM20.4576 20.5394C19.1367 21.8106 17.3736 22.5107 15.4933 22.5107C13.6129 22.5107 11.85 21.8106 10.5289 20.5394C9.31203 19.3812 8.5829 17.8024 8.49027 16.125H9.40152C9.49136 17.5816 10.1271 18.9508 11.182 19.9594C12.33 21.0667 13.8611 21.6766 15.4933 21.6766C17.1254 21.6766 18.6566 21.0668 19.8047 19.9594C20.8595 18.9508 21.4953 17.5816 21.5851 16.125H22.4963C22.4036 17.8024 21.6745 19.3812 20.4576 20.5394Z" fill="#FB6D3A"/>
</g>
<defs>
<clipPath id="clip0_229_425">
<rect width="24" height="24" fill="white"/>
</clipPath>
</defs>
</svg>
