<svg width="24" height="24" viewBox="0 0 24 24" fill="none" xmlns="http://www.w3.org/2000/svg">
<path d="M11.9998 2.14673C13.2542 2.14673 14.3394 2.57041 15.032 3.19263C15.7202 3.81101 16.0066 4.60404 15.7567 5.40454L15.6551 5.73071L15.9822 5.82446C16.5914 5.9996 17.0378 6.56202 17.0379 7.22485C17.0379 7.85271 16.6382 8.39092 16.0779 8.59497L15.8436 8.67993L15.8592 8.92993C15.9374 10.1469 16.3263 11.6477 16.8211 13.1799C17.3175 14.7172 17.9292 16.313 18.4647 17.7209C19.222 19.7138 17.7476 21.8528 15.6151 21.8528H8.38458C6.25268 21.8528 4.77743 19.7144 5.53497 17.7209C6.05678 16.3489 6.66818 14.7579 7.16779 13.2141C7.66577 11.6753 8.06167 10.1561 8.14044 8.92993L8.15607 8.67993L7.92169 8.59497C7.36146 8.39089 6.96173 7.85267 6.96173 7.22485C6.96185 6.56202 7.40821 5.99956 8.0174 5.82446L8.34454 5.73071L8.24298 5.40454C7.9931 4.60419 8.27946 3.81103 8.96759 3.19263C9.66016 2.57039 10.7452 2.14674 11.9998 2.14673ZM11.8494 13.7649L6.70197 16.3752L6.58575 16.4338L6.53986 16.5549C6.3748 16.9933 6.21623 17.4101 6.02716 17.9075C5.3993 19.5592 6.61582 21.3254 8.38458 21.3254H15.6151C17.3821 21.3254 18.601 19.5608 17.9725 17.9075C17.7931 17.4357 17.6273 16.9998 17.4598 16.5549L17.4139 16.4338L17.2986 16.3752L12.1502 13.7649L11.9998 13.6877L11.8494 13.7649ZM8.66486 8.99341C8.55264 10.659 7.91398 12.7653 7.14532 14.9143L6.8631 15.7024L7.60919 15.3245L11.8807 13.1575C11.9555 13.1195 12.0441 13.1195 12.119 13.1575L16.3904 15.3245L17.1365 15.7024L16.8543 14.9143C16.0857 12.7654 15.448 10.659 15.3358 8.99341L15.3143 8.68188H8.68536L8.66486 8.99341ZM8.41876 6.29517C7.90567 6.29518 7.48922 6.71179 7.48907 7.22485C7.48907 7.73804 7.90558 8.1555 8.41876 8.15552H15.5809C16.0941 8.15552 16.5115 7.73805 16.5115 7.22485C16.5114 6.71178 16.094 6.29517 15.5809 6.29517H8.41876ZM12.9305 2.75708L12.6414 2.71802C12.2142 2.66003 11.7853 2.66002 11.3582 2.71802L11.0701 2.75708V3.6438C11.0701 3.78923 10.9518 3.90732 10.8065 3.90747C10.6609 3.90747 10.5428 3.78932 10.5428 3.6438V2.86841L10.0662 3.09497C9.57871 3.32749 9.13529 3.6725 8.88654 4.10376C8.62655 4.55452 8.58901 5.08914 8.9129 5.6106L9.01056 5.76782H14.9891L15.0867 5.6106C15.3959 5.1128 15.3785 4.58894 15.1307 4.13501C14.8926 3.69901 14.4528 3.34269 13.9334 3.09497L13.4568 2.86841V3.6438C13.4568 3.78932 13.3387 3.90747 13.1932 3.90747C13.0478 3.90727 12.9305 3.7892 12.9305 3.6438V2.75708Z" fill="#FB6D3A" stroke="#FB6D3A" stroke-width="0.666667"/>
<path d="M9.61271 18.5648C9.94234 18.5648 10.2096 18.2976 10.2096 17.9679C10.2096 17.6383 9.94234 17.3711 9.61271 17.3711C9.28309 17.3711 9.01587 17.6383 9.01587 17.9679C9.01587 18.2976 9.28309 18.5648 9.61271 18.5648Z" fill="#FB6D3A"/>
<path d="M11.4032 16.7745C11.7329 16.7745 12.0001 16.5073 12.0001 16.1777C12.0001 15.848 11.7329 15.5808 11.4032 15.5808C11.0736 15.5808 10.8064 15.848 10.8064 16.1777C10.8064 16.5073 11.0736 16.7745 11.4032 16.7745Z" fill="#FB6D3A"/>
<path d="M12.5969 19.162C12.9265 19.162 13.1938 18.8947 13.1938 18.5651C13.1938 18.2355 12.9265 17.9683 12.5969 17.9683C12.2673 17.9683 12.0001 18.2355 12.0001 18.5651C12.0001 18.8947 12.2673 19.162 12.5969 19.162Z" fill="#FB6D3A"/>
</svg>
