<svg width="24" height="24" viewBox="0 0 24 24" fill="none" xmlns="http://www.w3.org/2000/svg">
<g clip-path="url(#clip0_229_440)">
<path d="M22.7483 8.30561C22.162 6.73027 21.1058 5.51347 19.6937 4.78662C19.4233 4.65054 19.1939 4.44512 19.029 4.19134C18.864 3.93755 18.7694 3.64452 18.7548 3.3422L18.7487 3.11251C18.7465 3.02891 18.7164 2.94845 18.6633 2.8839C18.6101 2.81935 18.5369 2.77442 18.4553 2.75626C18.3737 2.73809 18.2883 2.74773 18.2128 2.78364C18.1373 2.81955 18.0759 2.87966 18.0385 2.95444L17.9357 3.15938C17.7942 3.42701 17.5842 3.65227 17.3271 3.81214C17.07 3.97201 16.7751 4.06074 16.4725 4.06928C14.7854 4.13191 13.2446 4.87859 12.0475 6.12867C11.5193 4.91601 10.693 3.85663 9.64546 3.04905C8.59793 2.24147 7.36319 1.71192 6.05606 1.50964L1.18223 0.754665C1.11939 0.744928 1.0551 0.751336 0.995405 0.773285C0.935715 0.795234 0.882588 0.832003 0.841019 0.880135C0.79945 0.928268 0.770805 0.986181 0.757777 1.04843C0.744749 1.11068 0.747767 1.17522 0.766547 1.23598L2.22347 5.94777C2.82589 7.8964 4.16328 9.53394 5.95228 10.5135C5.57253 10.6809 5.20669 10.8782 4.85822 11.1036C3.44808 12.0183 2.48995 13.3137 2.08744 14.8501C2.01336 15.1436 1.86266 15.4122 1.65075 15.6284C1.43884 15.8446 1.17332 16.0006 0.881344 16.0805L0.658875 16.1363C0.577705 16.1566 0.505638 16.2034 0.454138 16.2693C0.402639 16.3352 0.374664 16.4165 0.374664 16.5002C0.374664 16.5838 0.402639 16.6651 0.454138 16.731C0.505638 16.7969 0.577705 16.8438 0.658875 16.864L0.881344 16.9198C1.17332 16.9997 1.43883 17.1557 1.65074 17.3719C1.86265 17.5881 2.01335 17.8567 2.08744 18.1502C2.48995 19.6866 3.44808 20.982 4.85822 21.8967C6.22355 22.7822 7.91503 23.2502 9.74981 23.2502C12.902 23.2502 15.5157 21.9072 16.7845 19.6937C16.7914 19.6937 16.7985 19.6944 16.8052 19.6944C16.9296 19.6943 17.0537 19.6843 17.1765 19.6642C20.0113 19.2023 22.245 16.7922 23.0061 13.3745C23.405 11.5835 23.3158 9.83076 22.7483 8.30561ZM11.4987 6.76838C11.0579 7.34595 10.6909 7.97623 10.4061 8.64462L10.0986 8.37912L10.1768 4.56926C10.7471 5.21605 11.1951 5.96123 11.4987 6.76838ZM3.26166 6.56953L6.13041 5.94318L7.16836 6.83953L3.72061 7.41943C3.5485 7.14688 3.39516 6.86293 3.26166 6.56953ZM3.97884 4.08513L2.51667 4.357L1.86933 2.26345L3.97884 4.08513ZM2.3595 1.69579L4.52489 2.03127L4.46902 3.51751L2.3595 1.69579ZM2.94 5.72619L2.73966 5.07828L4.70573 4.71293L5.42077 5.33047L2.98472 5.86237C2.96967 5.81723 2.95411 5.7719 2.94 5.72619ZM7.73011 2.77655L7.65844 6.27192L6.62048 5.37556L6.82242 2.44626C7.13214 2.53559 7.43541 2.64594 7.73011 2.77655ZM8.47247 3.15844C8.81411 3.3612 9.13816 3.59225 9.44119 3.84915L9.3615 7.74255L8.39587 6.90849L8.47247 3.15844ZM6.08245 2.27521L5.91098 4.76281L5.19591 4.14527L5.27091 2.14692L5.94122 2.25079C5.98852 2.2581 6.03544 2.26692 6.08245 2.27521ZM4.20656 8.09828L7.90538 7.47615L8.871 8.31016L5.03081 8.95611C4.73256 8.69372 4.45684 8.40677 4.20656 8.09828ZM5.85127 9.57871L9.6083 8.94678L10.1211 9.38966C10.0808 9.50944 10.0426 9.63085 10.0065 9.75388C9.92124 9.75191 9.83588 9.75008 9.74981 9.75008C8.79423 9.74548 7.84315 9.88131 6.92705 10.1532C6.55258 9.99305 6.19265 9.80083 5.85127 9.57871ZM5.26636 11.7329C5.80787 11.3847 6.39301 11.1095 7.00659 10.9146C7.01756 10.9116 7.0282 10.9078 7.03884 10.9038C7.91646 10.6311 8.8308 10.4949 9.74981 10.5001C12.938 10.5001 15.5092 11.976 16.46 14.3519C16.5841 14.6577 16.6064 14.9953 16.5235 15.3147C16.4406 15.6341 16.257 15.9183 15.9998 16.1252H15.6218C15.7209 15.8438 15.7632 15.5455 15.7461 15.2476C15.729 14.9497 15.6529 14.6582 15.5222 14.39C15.3915 14.1218 15.2088 13.8822 14.9848 13.6852C14.7607 13.4882 14.4997 13.3376 14.217 13.2423C13.869 12.7703 13.3415 12.3969 12.7163 12.1832C12.3407 12.0536 11.9451 11.9922 11.5479 12.0019C11.0535 11.5282 10.302 11.2501 9.49622 11.2501C8.67192 11.2501 7.90716 11.5399 7.41338 12.0322C7.12212 12.0585 6.83553 12.1225 6.56081 12.2228C5.60855 12.5679 4.91395 13.2734 4.73086 14.0595C4.3271 14.2328 3.98325 14.5211 3.74212 14.8884C3.501 15.2557 3.37326 15.6858 3.37481 16.1252H2.21259C2.50043 15.8195 2.70687 15.4464 2.81297 15.0402C3.1673 13.6876 4.01564 12.5439 5.26636 11.7329ZM8.5148 19.2351L8.14823 18.8685C7.83518 18.5543 7.41345 18.3724 6.97013 18.3602L5.26214 18.304C5.23582 18.3032 5.20949 18.3052 5.18358 18.3098C5.18123 18.309 5.17889 18.3079 5.17669 18.3071C4.87112 18.2126 4.60399 18.0224 4.41462 17.7646C4.22526 17.5068 4.12367 17.195 4.12481 16.8752H14.7995C14.93 17.1017 14.9991 17.3585 14.9998 17.6199C15.0005 17.8814 14.9328 18.1385 14.8035 18.3658L12.4619 18.3717C12.1401 18.372 11.8248 18.462 11.5514 18.6317C11.278 18.8014 11.0574 19.044 10.9144 19.3322C10.8919 19.3763 10.8784 19.4244 10.8746 19.4738C10.8708 19.5231 10.8768 19.5727 10.8923 19.6198C10.9077 19.6668 10.9324 19.7103 10.9647 19.7477C10.9971 19.7852 11.0365 19.8158 11.0808 19.838C11.125 19.8601 11.1733 19.8733 11.2226 19.8767C11.272 19.8801 11.3216 19.8737 11.3685 19.8579C11.4153 19.8421 11.4586 19.8171 11.4958 19.7845C11.533 19.7518 11.5634 19.7121 11.5852 19.6677C11.6664 19.5039 11.7918 19.3661 11.947 19.2696C12.1023 19.1732 12.2814 19.122 12.4642 19.1217L13.7857 19.1184C13.7392 19.1472 13.6996 19.1858 13.6696 19.2316C13.4201 19.6135 12.9842 19.9327 12.4735 20.1072C12.1396 20.224 11.7849 20.2693 11.4323 20.2401C11.3731 20.2345 11.3134 20.2431 11.2581 20.2652C11.2029 20.2872 11.1537 20.3222 11.1146 20.367C10.7742 20.7575 10.1541 20.9998 9.49622 20.9998C8.83266 20.9998 8.20983 20.7543 7.87078 20.359C7.83715 20.3197 7.79578 20.2879 7.74926 20.2654C7.70274 20.243 7.65208 20.2303 7.60045 20.2284C7.33258 20.2171 7.06808 20.1644 6.81638 20.072C6.25341 19.868 5.79384 19.4848 5.57386 19.0642L6.9473 19.1094C7.19968 19.1161 7.43985 19.2195 7.61813 19.3982L7.98469 19.7648C8.01936 19.8003 8.06073 19.8285 8.10639 19.8479C8.15205 19.8673 8.2011 19.8774 8.2507 19.8777C8.30029 19.8779 8.34945 19.8684 8.39533 19.8495C8.44121 19.8307 8.48289 19.8029 8.51797 19.7678C8.55304 19.7328 8.58081 19.6911 8.59967 19.6452C8.61853 19.5993 8.62809 19.5502 8.62782 19.5006C8.62755 19.451 8.61744 19.4019 8.59808 19.3563C8.57872 19.3106 8.55049 19.2692 8.51503 19.2346L8.5148 19.2351ZM5.17669 14.6932C5.17913 14.6925 5.18138 14.6912 5.18377 14.6904C5.20542 14.6944 5.22738 14.6964 5.24939 14.6965H5.26195L6.9682 14.6402C7.41222 14.6285 7.83472 14.4465 8.14833 14.132L8.51489 13.7654C8.55035 13.7307 8.57858 13.6893 8.59794 13.6436C8.6173 13.598 8.62741 13.5489 8.62768 13.4993C8.62795 13.4497 8.61839 13.4006 8.59953 13.3547C8.58067 13.3088 8.5529 13.2671 8.51783 13.2321C8.48275 13.197 8.44107 13.1692 8.39519 13.1504C8.34931 13.1315 8.30015 13.122 8.25055 13.1223C8.20096 13.1225 8.15191 13.1327 8.10625 13.152C8.06059 13.1714 8.01922 13.1996 7.98455 13.2351L7.61798 13.6016C7.43922 13.7808 7.19834 13.8842 6.94533 13.8906L5.57377 13.9357C5.7938 13.5152 6.25345 13.1321 6.81628 12.9279C7.06798 12.8355 7.33249 12.7828 7.60036 12.7715C7.65198 12.7696 7.70264 12.757 7.74916 12.7345C7.79568 12.712 7.83705 12.6802 7.87069 12.6409C8.20983 12.2457 8.83266 12.0001 9.49622 12.0001C10.1541 12.0001 10.7742 12.2426 11.1146 12.6329C11.1538 12.6777 11.2029 12.7126 11.2582 12.7347C11.3134 12.7567 11.3731 12.7654 11.4323 12.7599C11.7849 12.7307 12.1396 12.7759 12.4735 12.8927C12.9842 13.0672 13.4201 13.3864 13.6696 13.7684C13.6996 13.8141 13.7392 13.8528 13.7857 13.8816L12.4648 13.8782C12.2819 13.8781 12.1027 13.8269 11.9473 13.7304C11.7919 13.634 11.6665 13.4961 11.5852 13.3323C11.5403 13.2441 11.4623 13.1773 11.3683 13.1464C11.2743 13.1155 11.1719 13.1229 11.0834 13.1672C10.9949 13.2115 10.9275 13.2889 10.8958 13.3827C10.8642 13.4764 10.8709 13.5789 10.9144 13.6677C11.0575 13.956 11.2782 14.1986 11.5517 14.3683C11.8251 14.538 12.1405 14.628 12.4624 14.6282L14.8035 14.6341C14.9328 14.8614 15.0005 15.1185 14.9998 15.38C14.9991 15.6415 14.93 15.8982 14.7995 16.1248L4.12481 16.1252C4.12367 15.8053 4.22526 15.4935 4.41462 15.2357C4.60399 14.9779 4.87112 14.7878 5.17669 14.6932ZM9.74981 22.5002C8.0602 22.5002 6.50986 22.0739 5.26636 21.2674C4.01564 20.4565 3.1673 19.3127 2.81297 17.9601C2.70687 17.5539 2.50043 17.1808 2.21259 16.8752H3.37481C3.37326 17.3145 3.501 17.7447 3.74212 18.112C3.98325 18.4793 4.3271 18.7675 4.73086 18.9408C4.91395 19.7269 5.60855 20.4324 6.56081 20.7776C6.83553 20.8778 7.12212 20.9419 7.41338 20.9682C7.90692 21.4604 8.67192 21.7502 9.49622 21.7502C10.302 21.7502 11.0535 21.4721 11.5478 20.9985C11.9449 21.0083 12.3406 20.947 12.7161 20.8174C13.3413 20.6037 13.8689 20.2303 14.2168 19.7583C14.4996 19.663 14.7606 19.5125 14.9847 19.3154C15.2088 19.1184 15.3915 18.8788 15.5223 18.6106C15.653 18.3423 15.7291 18.0508 15.7462 17.7529C15.7633 17.4549 15.721 17.1566 15.6218 16.8752H15.9998C16.257 17.082 16.4406 17.3662 16.5235 17.6856C16.6064 18.005 16.5841 18.3427 16.46 18.6484C15.5092 21.0243 12.938 22.5002 9.74981 22.5002ZM22.2741 13.2114C21.5911 16.2783 19.6389 18.4474 17.1652 18.9037C17.2636 18.6511 17.3169 18.3833 17.3225 18.1123L18.1938 17.1049C18.4052 16.8602 18.6037 16.6047 18.7884 16.3393C18.8447 16.2576 18.8663 16.157 18.8486 16.0594C18.8308 15.9619 18.7751 15.8753 18.6937 15.8187C18.6123 15.7621 18.5118 15.74 18.4142 15.7573C18.3165 15.7746 18.2297 15.8299 18.1727 15.911C18.0031 16.1548 17.8207 16.3895 17.6265 16.6142L17.1412 17.1752C17.0348 16.9255 16.8847 16.6969 16.6978 16.5002C16.9991 16.1823 17.2025 15.7844 17.2838 15.3541C17.3651 14.9238 17.3209 14.4791 17.1563 14.0732C16.9993 13.6818 16.8021 13.3077 16.5679 12.957L17.2639 9.8316C17.275 9.78339 17.2764 9.73346 17.2681 9.68469C17.2598 9.63592 17.242 9.58927 17.2156 9.54743C17.1892 9.50559 17.1548 9.46938 17.1144 9.4409C17.0739 9.41241 17.0282 9.39221 16.9799 9.38146C16.9317 9.3707 16.8817 9.36961 16.833 9.37824C16.7843 9.38687 16.7378 9.40505 16.6961 9.43174C16.6545 9.45843 16.6185 9.49309 16.5903 9.53374C16.5621 9.57438 16.5422 9.62021 16.5318 9.66857L15.9693 12.1952C15.2297 11.3894 14.2708 10.7586 13.1552 10.3399C13.3759 9.67586 13.6782 9.04182 14.0552 8.45229C14.0817 8.4108 14.0998 8.36449 14.1085 8.316C14.1171 8.26751 14.1161 8.2178 14.1055 8.1697C14.095 8.12159 14.075 8.07604 14.0469 8.03565C14.0187 7.99525 13.9828 7.9608 13.9413 7.93427C13.8998 7.90773 13.8535 7.88962 13.805 7.88098C13.7566 7.87234 13.7068 7.87334 13.6587 7.88391C13.6106 7.89448 13.5651 7.91443 13.5247 7.9426C13.4843 7.97078 13.4499 8.00664 13.4233 8.04813C13.0123 8.69121 12.6828 9.38288 12.4424 10.1072C11.8973 9.95594 11.3399 9.85306 10.7767 9.79977C11.7053 6.85392 13.9148 4.91492 16.5005 4.81892C17.1204 4.79747 17.7099 4.54534 18.1537 4.11194C18.3715 4.69269 18.7984 5.17117 19.3506 5.45366C20.5937 6.09346 21.5256 7.17015 22.0455 8.56732C22.5623 9.95634 22.6413 11.5622 22.2741 13.2114Z" fill="#FB6D3A"/>
<path d="M17.731 6.00896C17.6339 5.98735 17.5322 6.00519 17.4483 6.05855C17.3644 6.11191 17.3051 6.19642 17.2835 6.29349L16.8659 8.1685C16.8548 8.2167 16.8534 8.26663 16.8616 8.3154C16.8699 8.36417 16.8878 8.41082 16.9142 8.45266C16.9406 8.4945 16.975 8.53071 17.0154 8.5592C17.0559 8.58768 17.1015 8.60788 17.1498 8.61864C17.1981 8.62939 17.2481 8.63048 17.2968 8.62185C17.3455 8.61322 17.392 8.59504 17.4336 8.56835C17.4753 8.54167 17.5113 8.507 17.5395 8.46636C17.5677 8.42571 17.5875 8.37989 17.5979 8.33153L18.0155 6.45652C18.0262 6.40845 18.0273 6.35875 18.0188 6.31024C18.0103 6.26173 17.9924 6.21537 17.9659 6.17381C17.9395 6.13225 17.9052 6.0963 17.8649 6.06802C17.8245 6.03973 17.779 6.01966 17.731 6.00896Z" fill="#FB6D3A"/>
<path d="M15.901 5.34964L14.9307 6.24682C14.7156 6.44572 14.5077 6.65717 14.313 6.87523C14.2799 6.91192 14.2544 6.95478 14.238 7.00135C14.2215 7.04792 14.2144 7.09729 14.2171 7.1466C14.2198 7.19592 14.2322 7.24423 14.2536 7.28874C14.275 7.33326 14.305 7.3731 14.3418 7.406C14.3786 7.43889 14.4216 7.46419 14.4683 7.48042C14.5149 7.49666 14.5643 7.50353 14.6136 7.50062C14.6629 7.49772 14.7112 7.4851 14.7556 7.46349C14.8 7.44189 14.8397 7.41173 14.8724 7.37473C15.0513 7.17448 15.2422 6.98023 15.4396 6.79751L16.4099 5.90032C16.4466 5.86704 16.4764 5.82681 16.4974 5.78196C16.5185 5.73712 16.5305 5.68854 16.5326 5.63904C16.5348 5.58954 16.5272 5.5401 16.5101 5.49358C16.4931 5.44706 16.467 5.40437 16.4334 5.36799C16.3997 5.33161 16.3592 5.30226 16.3142 5.28162C16.2691 5.26099 16.2204 5.24949 16.1709 5.24778C16.1214 5.24607 16.072 5.2542 16.0257 5.27168C15.9793 5.28916 15.9369 5.31566 15.9008 5.34964H15.901Z" fill="#FB6D3A"/>
<path d="M20.063 11.7333C20.0142 11.7261 19.9646 11.7285 19.9168 11.7404C19.869 11.7524 19.8241 11.7736 19.7845 11.8029C19.7449 11.8322 19.7115 11.8691 19.6862 11.9113C19.6608 11.9535 19.6441 12.0003 19.6368 12.049L19.5958 12.325C19.4639 13.2118 19.1918 14.072 18.7895 14.8732C18.7667 14.9173 18.7528 14.9655 18.7487 15.015C18.7447 15.0645 18.7505 15.1143 18.7658 15.1615C18.7811 15.2087 18.8057 15.2525 18.838 15.2901C18.8704 15.3278 18.9099 15.3587 18.9543 15.3809C18.9987 15.4032 19.0471 15.4164 19.0966 15.4198C19.1461 15.4233 19.1959 15.4168 19.2429 15.4009C19.2899 15.3849 19.3333 15.3598 19.3706 15.3269C19.4078 15.2941 19.4381 15.2542 19.4598 15.2095C19.8977 14.3372 20.194 13.4008 20.3375 12.4354L20.3786 12.1595C20.3932 12.0612 20.3682 11.961 20.309 11.8811C20.2498 11.8011 20.1613 11.748 20.063 11.7333Z" fill="#FB6D3A"/>
<path d="M20.3579 9.31394C20.3366 9.18363 20.3122 9.05224 20.2853 8.92338C20.2754 8.87502 20.256 8.82908 20.2283 8.78821C20.2006 8.74734 20.1652 8.71234 20.1239 8.68522C20.0827 8.65809 20.0365 8.63938 19.988 8.63015C19.9395 8.62092 19.8897 8.62135 19.8413 8.63143C19.793 8.64151 19.7471 8.66103 19.7064 8.68887C19.6656 8.71671 19.6307 8.75233 19.6038 8.79368C19.5768 8.83502 19.5583 8.88129 19.5492 8.92982C19.5402 8.97835 19.5408 9.02819 19.5511 9.07647C19.5758 9.19479 19.5982 9.31554 19.6178 9.4353C19.6761 9.79176 19.7116 10.1516 19.7241 10.5125C19.7274 10.6097 19.7683 10.7017 19.8382 10.7693C19.9081 10.8368 20.0014 10.8746 20.0986 10.8747H20.1117C20.2111 10.8713 20.3051 10.8285 20.3729 10.7558C20.4408 10.6831 20.477 10.5865 20.4736 10.4871C20.46 10.0941 20.4214 9.70238 20.358 9.31432L20.3579 9.31394Z" fill="#FB6D3A"/>
<path d="M19.2514 7.99915C19.2677 8.04563 19.293 8.08843 19.3258 8.12513C19.3587 8.16183 19.3985 8.19169 19.4429 8.21302C19.4873 8.23435 19.5354 8.24672 19.5846 8.24944C19.6338 8.25215 19.683 8.24515 19.7295 8.22884C19.776 8.21253 19.8188 8.18722 19.8555 8.15436C19.8922 8.12151 19.922 8.08174 19.9434 8.03735C19.9647 7.99295 19.9771 7.94478 19.9798 7.8956C19.9825 7.84642 19.9755 7.79719 19.9592 7.75071C19.9099 7.61009 19.8564 7.46946 19.8002 7.33109L19.3537 6.2336C19.3159 6.14198 19.2433 6.06906 19.1519 6.03079C19.0604 5.99252 18.9576 5.992 18.8657 6.02936C18.7739 6.06672 18.7006 6.13891 18.6619 6.23015C18.6232 6.32139 18.6221 6.42426 18.659 6.51626L19.1055 7.61374C19.1568 7.74064 19.2059 7.87024 19.2514 7.99915Z" fill="#FB6D3A"/>
<path d="M8.51494 15.6402L8.73464 15.4205C9.00388 15.1513 9.36904 15 9.74979 15C10.1305 15 10.4957 15.1513 10.7649 15.4205L10.9846 15.6402C11.0194 15.675 11.0608 15.7026 11.1063 15.7214C11.1518 15.7403 11.2005 15.75 11.2498 15.75C11.299 15.75 11.3478 15.7403 11.3933 15.7214C11.4388 15.7026 11.4801 15.675 11.5149 15.6402C11.5498 15.6053 11.5774 15.564 11.5962 15.5185C11.6151 15.473 11.6248 15.4242 11.6248 15.375C11.6248 15.3257 11.6151 15.277 11.5962 15.2315C11.5774 15.186 11.5498 15.1446 11.5149 15.1098L11.2953 14.8902C10.8854 14.4803 10.3295 14.25 9.74979 14.25C9.17012 14.25 8.61419 14.4803 8.2043 14.8902L7.98459 15.1099C7.91427 15.1802 7.87476 15.2756 7.87476 15.375C7.87476 15.4745 7.91427 15.5699 7.98459 15.6402C8.05492 15.7105 8.15031 15.75 8.24977 15.75C8.34922 15.75 8.44461 15.7105 8.51494 15.6402Z" fill="#FB6D3A"/>
<path d="M11.2952 18.1099L11.5149 17.8902C11.5498 17.8554 11.5774 17.814 11.5962 17.7685C11.6151 17.723 11.6248 17.6743 11.6248 17.625C11.6248 17.5758 11.6151 17.527 11.5962 17.4815C11.5774 17.436 11.5498 17.3947 11.5149 17.3598C11.4801 17.325 11.4388 17.2974 11.3933 17.2785C11.3478 17.2597 11.299 17.25 11.2498 17.25C11.2005 17.25 11.1518 17.2597 11.1063 17.2785C11.0608 17.2974 11.0194 17.325 10.9846 17.3598L10.7649 17.5795C10.4957 17.8488 10.1305 18 9.74974 18C9.36899 18 9.00383 17.8488 8.73459 17.5795L8.51494 17.3599C8.44461 17.2896 8.34922 17.25 8.24977 17.25C8.15031 17.25 8.05492 17.2896 7.98459 17.3599C7.91427 17.4302 7.87476 17.5256 7.87476 17.6251C7.87476 17.7245 7.91427 17.8199 7.98459 17.8902L8.20425 18.1099C8.61414 18.5198 9.17007 18.75 9.74974 18.75C10.3294 18.75 10.8853 18.5198 11.2952 18.1099Z" fill="#FB6D3A"/>
</g>
<defs>
<clipPath id="clip0_229_440">
<rect width="24" height="24" fill="white"/>
</clipPath>
</defs>
</svg>
